<?xml version="1.0" encoding="UTF-8" standalone="no"?>
<!-- Created with Inkscape (http://www.inkscape.org/) -->

<svg
   width="1800"
   height="1800"
   viewBox="0 0 476.24999 476.25"
   version="1.1"
   id="svg1"
   inkscape:version="1.3.2 (091e20e, 2023-11-25, custom)"
   sodipodi:docname="Logo Design 3.svg"
   xmlns:inkscape="http://www.inkscape.org/namespaces/inkscape"
   xmlns:sodipodi="http://sodipodi.sourceforge.net/DTD/sodipodi-0.dtd"
   xmlns="http://www.w3.org/2000/svg"
   xmlns:svg="http://www.w3.org/2000/svg">
  <sodipodi:namedview
     id="namedview1"
     pagecolor="#ffffff"
     bordercolor="#999999"
     borderopacity="1"
     inkscape:showpageshadow="2"
     inkscape:pageopacity="0"
     inkscape:pagecheckerboard="0"
     inkscape:deskcolor="#d1d1d1"
     inkscape:document-units="mm"
     inkscape:zoom="0.2692943"
     inkscape:cx="415.90186"
     inkscape:cy="547.7279"
     inkscape:window-width="1920"
     inkscape:window-height="1051"
     inkscape:window-x="-9"
     inkscape:window-y="-9"
     inkscape:window-maximized="1"
     inkscape:current-layer="svg1" />
  <defs
     id="defs1">
    <inkscape:path-effect
       effect="fillet_chamfer"
       id="path-effect86"
       is_visible="true"
       lpeversion="1"
       nodesatellites_param="F,0,0,1,0,0,0,1 @ F,0,0,1,0,0,0,1 @ F,0,0,1,0,0,0,1 @ F,0,0,1,0,0,0,1 @ F,0,0,1,0,0,0,1 @ F,0,0,1,0,0,0,1 @ F,0,0,1,0,0,0,1 @ F,0,0,1,0,0,0,1 @ F,0,0,1,0,0,0,1 @ F,0,0,1,0,0,0,1 @ F,0,0,1,0,0,0,1 @ F,0,0,1,0,0,0,1 @ F,0,0,1,0,0,0,1 @ F,0,0,1,0,0,0,1 @ F,0,0,1,0,0,0,1 @ F,0,0,1,0,0,0,1 @ F,0,0,1,0,0,0,1 @ F,0,0,1,0,0,0,1 @ F,0,0,1,0,0,0,1 @ F,0,0,1,0,0,0,1 @ F,0,0,1,0,0,0,1 @ F,0,0,1,0,0,0,1 @ F,0,0,1,0,0,0,1 @ F,0,0,1,0,0,0,1 @ F,0,0,1,0,0,0,1 @ F,0,0,1,0,0,0,1 @ F,0,0,1,0,0,0,1 @ F,0,0,1,0,0,0,1 @ F,0,0,1,0,0,0,1 @ F,0,0,1,0,0,0,1 @ F,0,0,1,0,0,0,1 @ F,0,0,1,0,0,0,1 @ F,0,0,1,0,0,0,1 @ F,0,0,1,0,0,0,1 @ F,0,0,1,0,0,0,1 @ F,0,0,1,0,0,0,1 @ F,0,0,1,0,0,0,1 @ F,0,0,1,0,0,0,1 @ F,0,0,1,0,0,0,1 @ F,0,0,1,0,0,0,1 @ F,0,0,1,0,0,0,1 @ F,0,0,1,0,0,0,1 @ F,0,0,1,0,0,0,1 | F,0,0,1,0,0,0,1 @ F,0,0,1,0,0,0,1 @ F,0,0,1,0,0,0,1 @ F,0,0,1,0,0,0,1 @ F,0,0,1,0,0,0,1 @ F,0,0,1,0,0,0,1 @ F,0,0,1,0,0,0,1 @ F,0,0,1,0,0,0,1 @ F,0,0,1,0,0,0,1 @ F,0,0,1,0,0,0,1 @ F,0,0,1,0,0,0,1 @ F,0,0,1,0,0,0,1 @ F,0,0,1,0,0,0,1 @ F,0,0,1,0,0,0,1 @ F,0,0,1,0,0,0,1 @ F,0,0,1,0,0,0,1 @ F,0,0,1,0,0,0,1 @ F,0,0,1,0,0,0,1 @ F,0,0,1,0,0,0,1 @ F,0,0,1,0,0,0,1 @ F,0,0,1,0,0,0,1 @ F,0,0,1,0,0,0,1 @ F,0,0,1,0,0,0,1 @ F,0,0,1,0,0,0,1 @ F,0,0,1,0,0,0,1 @ F,0,0,1,0,0,0,1 @ F,0,0,1,0,0,0,1 @ F,0,0,1,0,0,0,1 @ F,0,0,1,0,0,0,1 @ F,0,0,1,0,0,0,1 @ F,0,0,1,0,0,0,1 @ F,0,0,1,0,0,0,1 @ F,0,0,1,0,0,0,1 @ F,0,0,1,0,0,0,1 @ F,0,0,1,0,0,0,1 @ F,0,0,1,0,0,0,1 @ F,0,0,1,0,0,0,1 @ F,0,0,1,0,0,0,1 @ F,0,0,1,0,0,0,1 @ F,0,0,1,0,0,0,1 @ F,0,0,1,0,0,0,1 @ F,0,0,1,0,0,0,1 @ F,0,0,1,0,0,0,1 @ F,0,0,1,0,0,0,1 @ F,0,0,1,0,0,0,1 @ F,0,0,1,0,0,0,1 @ F,0,0,1,0,0,0,1 @ F,0,0,1,0,0,0,1 @ F,0,0,1,0,0,0,1 @ F,0,0,1,0,0,0,1 @ F,0,0,1,0,0,0,1 @ F,0,0,1,0,0,0,1 @ F,0,0,1,0,0,0,1"
       radius="0"
       unit="px"
       method="auto"
       mode="F"
       chamfer_steps="1"
       flexible="false"
       use_knot_distance="true"
       apply_no_radius="true"
       apply_with_radius="true"
       only_selected="false"
       hide_knots="false" />
    <inkscape:path-effect
       effect="fillet_chamfer"
       id="path-effect85"
       is_visible="true"
       lpeversion="1"
       nodesatellites_param="F,0,0,1,0,0,0,1 @ F,0,0,1,0,0,0,1 @ F,0,0,1,0,0,0,1 @ F,0,0,1,0,0,0,1 @ F,0,0,1,0,0,0,1 @ F,0,0,1,0,0,0,1 @ F,0,0,1,0,0,0,1 @ F,0,0,1,0,0,0,1 @ F,0,0,1,0,0,0,1 @ F,0,0,1,0,0,0,1 @ F,0,0,1,0,0,0,1 @ F,0,0,1,0,0,0,1 @ F,0,0,1,0,0,0,1 @ F,0,0,1,0,0,0,1 @ F,0,0,1,0,0,0,1 @ F,0,0,1,0,0,0,1 @ F,0,0,1,0,nan,0,1 @ F,0,1,1,0,nan,0,1 @ F,0,0,1,0,0,0,1 @ F,0,0,1,0,0,0,1 @ F,0,0,1,0,0,0,1 @ F,0,0,1,0,0,0,1 @ F,0,0,1,0,0,0,1 @ F,0,0,1,0,0,0,1 @ F,0,0,1,0,0,0,1 @ F,0,0,1,0,0,0,1 @ F,0,0,1,0,0,0,1 @ F,0,0,1,0,0,0,1 @ F,0,0,1,0,0,0,1 @ F,0,0,1,0,0,0,1 @ F,0,0,1,0,0,0,1 @ F,0,0,1,0,0,0,1 @ F,0,0,1,0,0,0,1 @ F,0,0,1,0,5.0714715,0,1 @ F,0,0,1,0,0,0,1 @ F,0,0,1,0,0,0,1 @ F,0,0,1,0,0,0,1 @ F,0,0,1,0,0,0,1 @ F,0,0,1,0,0,0,1 @ F,0,0,1,0,0,0,1 @ F,0,0,1,0,0,0,1 @ F,0,0,1,0,0,0,1 @ F,0,0,1,0,0,0,1 | F,0,0,1,0,0,0,1 @ F,0,0,1,0,0,0,1 @ F,0,0,1,0,0,0,1 @ F,0,0,1,0,0,0,1 @ F,0,0,1,0,0,0,1 @ F,0,0,1,0,0,0,1 @ F,0,0,1,0,0,0,1 @ F,0,0,1,0,0,0,1 @ F,0,0,1,0,0,0,1 @ F,0,0,1,0,0,0,1 @ F,0,0,1,0,0,0,1 @ F,0,0,1,0,0,0,1 @ F,0,0,1,0,0,0,1 @ F,0,0,1,0,0,0,1 @ F,0,0,1,0,0,0,1 @ F,0,0,1,0,0,0,1 @ F,0,0,1,0,0,0,1 @ F,0,0,1,0,0,0,1 @ F,0,0,1,0,0,0,1 @ F,0,0,1,0,0,0,1 @ F,0,0,1,0,0,0,1 @ F,0,0,1,0,0,0,1 @ F,0,0,1,0,0,0,1 @ F,0,0,1,0,0,0,1 @ F,0,0,1,0,0,0,1 @ F,0,0,1,0,0,0,1 @ F,0,0,1,0,0,0,1 @ F,0,0,1,0,0,0,1 @ F,0,0,1,0,0,0,1 @ F,0,0,1,0,0,0,1 @ F,0,0,1,0,0,0,1 @ F,0,0,1,0,0,0,1 @ F,0,0,1,0,0,0,1 @ F,0,0,1,0,0,0,1 @ F,0,0,1,0,0,0,1 @ F,0,0,1,0,0,0,1 @ F,0,0,1,0,0,0,1 @ F,0,0,1,0,0,0,1 @ F,0,0,1,0,0,0,1 @ F,0,0,1,0,0,0,1 @ F,0,0,1,0,0,0,1 @ F,0,0,1,0,0,0,1 @ F,0,0,1,0,0,0,1 @ F,0,0,1,0,0,0,1 @ F,0,0,1,0,0,0,1 @ F,0,0,1,0,0,0,1 @ F,0,0,1,0,0,0,1 @ F,0,0,1,0,0,0,1 @ F,0,0,1,0,0,0,1 @ F,0,0,1,0,0,0,1 @ F,0,0,1,0,0,0,1 @ F,0,0,1,0,0,0,1 @ F,0,0,1,0,0,0,1"
       radius="0"
       unit="px"
       method="auto"
       mode="F"
       chamfer_steps="1"
       flexible="false"
       use_knot_distance="true"
       apply_no_radius="true"
       apply_with_radius="true"
       only_selected="false"
       hide_knots="false" />
  </defs>
  <g
     inkscape:label="Layer 1"
     inkscape:groupmode="layer"
     id="layer1" />
  <path
     d="m 237.59997,119.58908 c -3.91924,0 -7.81376,0.21446 -11.67371,0.61702 -0.90671,0.0946 -1.80689,0.22367 -2.70939,0.34003 -10.45502,1.34794 -20.61424,4.14204 -30.20436,8.28012 -10.95198,4.7257 -21.15376,11.19259 -30.20539,19.21071 v 0.58136 h -0.66921 c -1.59565,1.43584 -3.16503,2.90668 -4.68499,4.439 -7.14037,7.19851 -13.20898,15.28127 -18.15393,23.97477 -2.5356,4.45773 -4.7811,9.07233 -6.69726,13.82758 -1.91067,4.74161 -3.5116,9.61258 -4.77801,14.58567 -2.34228,9.19802 -3.56929,18.73533 -3.56929,28.41222 v 5.2e-4 c 4e-5,9.67724 1.22731,19.21493 3.56981,28.41325 1.26634,4.97256 2.86701,9.84249 4.77749,14.58361 1.91626,4.7555 4.162,9.37066 6.69778,13.82861 4.94479,8.69305 11.01337,16.77608 18.15341,23.97425 1.52011,1.53248 3.08969,3.00353 4.6855,4.43952 0.21981,0.19779 0.4475,0.3849 0.6687,0.58084 9.05144,8.01801 19.25363,14.48543 30.20539,19.21123 9.58989,4.13815 19.7496,6.93264 30.20436,8.28063 v -28.0727 -0.078 c -10.7542,-1.84459 -20.97674,-5.73495 -30.20436,-11.40603 -5.78254,-3.55381 -11.21396,-7.72094 -16.06362,-12.61008 -1.36851,-1.37965 -2.61628,-2.85768 -3.88297,-4.31963 -3.92415,-4.52905 -7.3683,-9.41537 -10.2588,-14.61978 -2.44512,-4.40248 -4.46952,-9.02094 -6.11849,-13.79244 -3.12183,-9.0334 -4.86218,-18.6003 -4.86224,-28.41325 v -5.2e-4 c 0,-9.8127 1.74012,-19.37921 4.86172,-28.41222 1.64908,-4.77195 3.67362,-9.3906 6.11901,-13.79347 2.89059,-5.20445 6.33501,-10.09067 10.25932,-14.61978 1.26657,-1.46177 2.51409,-2.93961 3.88245,-4.31912 4.84974,-4.88922 10.28097,-9.05621 16.06362,-12.61008 9.22752,-5.67102 19.45027,-9.56146 30.20436,-11.40602 v -0.0785 h 0.52038 c 4.55297,-0.752 9.1726,-1.233 13.86272,-1.233 4.69011,0 9.30974,0.481 13.86272,1.233 0.65125,0.10756 1.31204,0.17362 1.95957,0.2961 10.78706,2.0405 21.01677,6.1604 30.20384,12.05818 5.24337,3.36607 10.17568,7.25489 14.62495,11.74037 1.36838,1.37952 2.61586,2.85732 3.88245,4.31912 4.59493,5.30314 8.53029,11.09866 11.69799,17.30747 1.82634,3.57968 3.36438,7.29784 4.68033,11.10578 3.12178,9.03343 4.86224,18.59954 4.86224,28.41222 v 5.2e-4 c -6e-5,9.81331 -1.74081,19.37953 -4.86275,28.41325 -1.31589,3.80769 -2.85363,7.52531 -4.67982,11.10475 v 17.30747 27.73164 c 1.33088,-1.21962 2.63835,-2.46976 3.91552,-3.75739 7.14036,-7.19849 13.2084,-15.28082 18.15342,-23.97425 3.19814,-5.6224 5.92963,-11.4981 8.13645,-17.58032 1.28749,-3.54847 2.4042,-7.16195 3.33882,-10.8319 2.34257,-9.19862 3.56976,-18.7357 3.5698,-28.41325 v -5.2e-4 c 0,-9.67716 -1.22694,-19.21394 -3.56929,-28.41222 -0.93467,-3.67041 -2.05168,-7.28507 -3.33933,-10.83396 -2.20668,-6.08186 -4.93803,-11.9572 -8.13594,-17.57929 -4.94503,-8.69364 -11.01344,-16.77615 -18.15393,-23.97477 -1.27715,-1.28755 -2.58467,-2.53784 -3.91552,-3.75739 -0.25303,-0.23187 -0.51455,-0.45223 -0.76946,-0.68161 -8.81888,-7.93572 -18.76336,-14.36621 -29.43593,-19.14922 -9.57422,-4.29077 -19.73015,-7.2548 -30.20384,-8.74262 -1.37802,-0.19575 -2.75945,-0.37561 -4.14755,-0.52038 -3.85994,-0.40257 -7.75445,-0.61702 -11.67371,-0.61702 z"
     style="fill:#000000;stroke:#000000;stroke-width:0.220664;fill-opacity:1"
     id="path85" />
  <path
     d="m 237.59997,175.18156 c -4.87809,0 -9.63934,0.68009 -14.23841,1.85053 -0.0483,0.0123 -0.0965,0.0248 -0.14469,0.0372 -10.13312,2.60679 -19.39096,7.85716 -26.77201,15.29829 -1.20795,1.21778 -2.33982,2.50164 -3.43235,3.81527 -2.39676,2.88179 -4.50236,5.98421 -6.30453,9.26248 -4.69624,8.54284 -7.31014,18.26648 -7.31014,28.41222 v 5.2e-4 c 8e-5,10.14685 2.61443,19.87036 7.31118,28.41325 1.8019,3.27748 3.90721,6.37924 6.30349,9.26042 1.09255,1.31363 2.22437,2.59798 3.43235,3.81578 7.38131,7.4414 16.63878,12.69154 26.77201,15.2983 0.0489,0.0126 0.0978,0.0253 0.14676,0.0377 4.59813,1.16998 9.35815,1.85002 14.2353,1.85002 h 0.001 c 4.87744,0 9.63782,-0.68001 14.23634,-1.85002 0.52896,-0.13458 1.06199,-0.2564 1.58595,-0.40566 v 0.40566 28.11818 0.29559 27.89235 0.5209 27.157 c 1.98918,-0.11513 3.97574,-0.27278 5.95829,-0.47284 0.21686,-0.0342 0.43138,-0.0785 0.64802,-0.11369 7.0005,-1.14021 13.90569,-2.81153 20.65662,-4.99969 0.32157,-0.10415 0.64093,-0.21446 0.9617,-0.32091 0.6618,-0.27038 1.32156,-0.54582 1.97921,-0.82631 v -20.42356 -9.26403 -19.14922 -12.35377 -16.06 -15.93603 c 0,-2.80089 1.40485,-6.86145 2.92026,-9.21605 0.68475,-1.06395 1.33437,-2.15027 1.94456,-3.26014 4.69681,-8.54301 7.31109,-18.26626 7.31118,-28.41325 v -5.2e-4 c 0,-10.14592 -2.61382,-19.86923 -7.31015,-28.41222 -1.42511,-2.59238 -3.06541,-5.05651 -4.86585,-7.40678 -1.51423,-1.97665 -3.10862,-3.89423 -4.87102,-5.67097 -7.03191,-7.08915 -15.76216,-12.20372 -25.33282,-14.93036 -0.52327,-0.14907 -1.05563,-0.2707 -1.58389,-0.40514 -4.59907,-1.17044 -9.36031,-1.85053 -14.2384,-1.85053 z m 0,27.79675 0.005,5.1e-4 c 3.28802,5e-4 6.44941,0.5367 9.41803,1.50379 0.0346,0.0127 0.0693,0.0254 0.10387,0.0382 0.84124,0.27748 1.67257,0.57733 2.47995,0.92449 1.32877,0.57136 2.59136,1.26076 3.81579,2.00815 0.69222,0.42253 1.3682,0.86565 2.02313,1.34048 0.10332,0.077 0.20616,0.15473 0.30851,0.23306 1.23545,0.91966 2.4216,1.90306 3.50521,2.99569 1.08274,1.09155 2.05725,2.28669 2.96881,3.53105 0.0789,0.10491 0.15708,0.21034 0.23461,0.31626 1.80965,2.53744 3.25387,5.35272 4.23799,8.38502 0.0125,0.0341 0.0249,0.0682 0.0372,0.10231 0.96015,2.9946 1.49242,6.18323 1.49242,9.5002 v 5.2e-4 c -6e-5,3.31676 -0.53232,6.50559 -1.49242,9.50019 -0.0123,0.0341 -0.0247,0.0682 -0.0372,0.10232 -0.98431,3.03307 -2.42887,5.84914 -4.23902,8.38709 -0.0767,0.1047 -0.15404,0.20892 -0.23203,0.31264 -0.91196,1.24519 -1.88702,2.44045 -2.97036,3.5326 -1.08361,1.09242 -2.26977,2.0761 -3.50521,2.99568 -0.10235,0.0783 -0.20519,0.15603 -0.30851,0.23306 -0.65493,0.4748 -1.33092,0.91797 -2.02313,1.34049 -1.22509,0.74778 -2.48832,1.43757 -3.81786,2.00918 -0.80671,0.34683 -1.63737,0.64618 -2.47788,0.92346 -0.0346,0.0128 -0.0692,0.0256 -0.10387,0.0382 -2.97007,0.96769 -6.13294,1.5043 -9.42268,1.5043 h -0.001 c -3.28936,0 -6.45171,-0.53661 -9.42164,-1.5043 -0.0346,-0.0127 -0.0693,-0.0254 -0.10387,-0.0382 -0.84047,-0.27728 -1.6712,-0.57663 -2.47789,-0.92346 -0.81271,-0.34942 -1.60383,-0.73908 -2.37866,-1.15549 -1.20888,-0.64967 -2.35687,-1.39276 -3.46232,-2.19418 -0.10332,-0.077 -0.20617,-0.15472 -0.30851,-0.23306 -1.23543,-0.91957 -2.42162,-1.90327 -3.50522,-2.99568 -1.08332,-1.09214 -2.05841,-2.28742 -2.97036,-3.5326 -0.078,-0.10372 -0.15534,-0.20794 -0.23202,-0.31264 -1.81014,-2.53793 -3.25473,-5.35405 -4.23902,-8.38709 -0.0125,-0.0341 -0.0249,-0.0682 -0.0372,-0.10232 -0.96008,-2.99457 -1.49236,-6.18347 -1.49241,-9.50019 v -5.2e-4 c 0,-3.31689 0.53228,-6.50566 1.49241,-9.5002 0.0123,-0.0341 0.0248,-0.0682 0.0372,-0.10231 0.98409,-3.03223 2.42837,-5.84763 4.23798,-8.38502 0.0775,-0.10592 0.15575,-0.21135 0.23461,-0.31626 0.91154,-1.24434 1.8861,-2.43953 2.96881,-3.53105 1.08318,-1.09199 2.26889,-2.07491 3.50367,-2.99414 0.10354,-0.0792 0.20759,-0.15776 0.31212,-0.23564 1.10479,-0.80081 2.25224,-1.54341 3.46026,-2.19263 0.77451,-0.41624 1.56528,-0.80567 2.37763,-1.15497 0.80618,-0.34665 1.63642,-0.64577 2.47633,-0.92294 0.0361,-0.0135 0.0723,-0.0269 0.10852,-0.0403 2.96822,-0.96686 6.12874,-1.50277 9.41597,-1.50327 z"
     style="fill:#000000;stroke:#000000;stroke-width:0.220664;fill-opacity:1"
     id="path84"
     inkscape:path-effect="#path-effect85;#path-effect86"
     inkscape:original-d="m 237.59997,175.18156 c -4.87809,0 -9.63934,0.68009 -14.23841,1.85053 -0.0483,0.0123 -0.0965,0.0248 -0.14469,0.0372 -10.13312,2.60679 -19.39096,7.85716 -26.77201,15.29829 -1.20795,1.21778 -2.33982,2.50164 -3.43235,3.81527 -2.39676,2.88179 -4.50236,5.98421 -6.30453,9.26248 -4.69624,8.54284 -7.31014,18.26648 -7.31014,28.41222 v 5.2e-4 c 8e-5,10.14685 2.61443,19.87036 7.31118,28.41325 1.8019,3.27748 3.90721,6.37924 6.30349,9.26042 1.09255,1.31363 2.22437,2.59798 3.43235,3.81578 7.38131,7.4414 16.63878,12.69154 26.77201,15.2983 0.0489,0.0126 0.0978,0.0253 0.14676,0.0377 4.59813,1.16998 9.35815,1.85002 14.2353,1.85002 h 0.001 c 4.87744,0 9.63782,-0.68001 14.23634,-1.85002 0.52896,-0.13458 1.06199,-0.2564 1.58595,-0.40566 v 0.40566 28.11818 0.29559 27.89235 0.5209 27.157 c 1.98918,-0.11513 3.97574,-0.27278 5.95829,-0.47284 0.21686,-0.0342 0.43138,-0.0785 0.64802,-0.11369 7.0005,-1.14021 13.90569,-2.81153 20.65662,-4.99969 0.32157,-0.10415 0.64093,-0.21446 0.9617,-0.32091 0.6618,-0.27038 1.32156,-0.54582 1.97921,-0.82631 v -20.42356 -9.26403 -19.14922 -12.35377 -16.06 -21.0075 c 1.80003,-2.3497 3.43995,-4.81303 4.86482,-7.40472 4.69681,-8.54301 7.31109,-18.26626 7.31118,-28.41325 v -5.2e-4 c 0,-10.14592 -2.61382,-19.86923 -7.31015,-28.41222 -1.42511,-2.59238 -3.06541,-5.05651 -4.86585,-7.40678 -1.51423,-1.97665 -3.10862,-3.89423 -4.87102,-5.67097 -7.03191,-7.08915 -15.76216,-12.20372 -25.33282,-14.93036 -0.52327,-0.14907 -1.05563,-0.2707 -1.58389,-0.40514 -4.59907,-1.17044 -9.36031,-1.85053 -14.2384,-1.85053 z m 0,27.79675 0.005,5.1e-4 c 3.28802,5e-4 6.44941,0.5367 9.41803,1.50379 0.0346,0.0127 0.0693,0.0254 0.10387,0.0382 0.84124,0.27748 1.67257,0.57733 2.47995,0.92449 1.32877,0.57136 2.59136,1.26076 3.81579,2.00815 0.69222,0.42253 1.3682,0.86565 2.02313,1.34048 0.10332,0.077 0.20616,0.15473 0.30851,0.23306 1.23545,0.91966 2.4216,1.90306 3.50521,2.99569 1.08274,1.09155 2.05725,2.28669 2.96881,3.53105 0.0789,0.10491 0.15708,0.21034 0.23461,0.31626 1.80965,2.53744 3.25387,5.35272 4.23799,8.38502 0.0125,0.0341 0.0249,0.0682 0.0372,0.10231 0.96015,2.9946 1.49242,6.18323 1.49242,9.5002 v 5.2e-4 c -6e-5,3.31676 -0.53232,6.50559 -1.49242,9.50019 -0.0123,0.0341 -0.0247,0.0682 -0.0372,0.10232 -0.98431,3.03307 -2.42887,5.84914 -4.23902,8.38709 -0.0767,0.1047 -0.15404,0.20892 -0.23203,0.31264 -0.91196,1.24519 -1.88702,2.44045 -2.97036,3.5326 -1.08361,1.09242 -2.26977,2.0761 -3.50521,2.99568 -0.10235,0.0783 -0.20519,0.15603 -0.30851,0.23306 -0.65493,0.4748 -1.33092,0.91797 -2.02313,1.34049 -1.22509,0.74778 -2.48832,1.43757 -3.81786,2.00918 -0.80671,0.34683 -1.63737,0.64618 -2.47788,0.92346 -0.0346,0.0128 -0.0692,0.0256 -0.10387,0.0382 -2.97007,0.96769 -6.13294,1.5043 -9.42268,1.5043 h -0.001 c -3.28936,0 -6.45171,-0.53661 -9.42164,-1.5043 -0.0346,-0.0127 -0.0693,-0.0254 -0.10387,-0.0382 -0.84047,-0.27728 -1.6712,-0.57663 -2.47789,-0.92346 -0.81271,-0.34942 -1.60383,-0.73908 -2.37866,-1.15549 -1.20888,-0.64967 -2.35687,-1.39276 -3.46232,-2.19418 -0.10332,-0.077 -0.20617,-0.15472 -0.30851,-0.23306 -1.23543,-0.91957 -2.42162,-1.90327 -3.50522,-2.99568 -1.08332,-1.09214 -2.05841,-2.28742 -2.97036,-3.5326 -0.078,-0.10372 -0.15534,-0.20794 -0.23202,-0.31264 -1.81014,-2.53793 -3.25473,-5.35405 -4.23902,-8.38709 -0.0125,-0.0341 -0.0249,-0.0682 -0.0372,-0.10232 -0.96008,-2.99457 -1.49236,-6.18347 -1.49241,-9.50019 v -5.2e-4 c 0,-3.31689 0.53228,-6.50566 1.49241,-9.5002 0.0123,-0.0341 0.0248,-0.0682 0.0372,-0.10231 0.98409,-3.03223 2.42837,-5.84763 4.23798,-8.38502 0.0775,-0.10592 0.15575,-0.21135 0.23461,-0.31626 0.91154,-1.24434 1.8861,-2.43953 2.96881,-3.53105 1.08318,-1.09199 2.26889,-2.07491 3.50367,-2.99414 0.10354,-0.0792 0.20759,-0.15776 0.31212,-0.23564 1.10479,-0.80081 2.25224,-1.54341 3.46026,-2.19263 0.77451,-0.41624 1.56528,-0.80567 2.37763,-1.15497 0.80618,-0.34665 1.63642,-0.64577 2.47633,-0.92294 0.0361,-0.0135 0.0723,-0.0269 0.10852,-0.0403 2.96822,-0.96686 6.12874,-1.50277 9.41597,-1.50327 z" />
</svg>
