<?xml version="1.0" encoding="UTF-8" standalone="no"?>
<!-- Created with Inkscape (http://www.inkscape.org/) -->

<svg
   width="110mm"
   height="110mm"
   viewBox="0 0 110 110"
   version="1.1"
   id="svg1"
   inkscape:version="1.3.2 (091e20e, 2023-11-25, custom)"
   sodipodi:docname="Logo Design 4.svg"
   xmlns:inkscape="http://www.inkscape.org/namespaces/inkscape"
   xmlns:sodipodi="http://sodipodi.sourceforge.net/DTD/sodipodi-0.dtd"
   xmlns="http://www.w3.org/2000/svg"
   xmlns:svg="http://www.w3.org/2000/svg">
  <sodipodi:namedview
     id="namedview1"
     pagecolor="#ffffff"
     bordercolor="#999999"
     borderopacity="1"
     inkscape:showpageshadow="2"
     inkscape:pageopacity="0"
     inkscape:pagecheckerboard="0"
     inkscape:deskcolor="#d1d1d1"
     inkscape:document-units="mm"
     showgrid="false"
     inkscape:zoom="2.9083784"
     inkscape:cx="201.65877"
     inkscape:cy="199.25193"
     inkscape:window-width="1920"
     inkscape:window-height="1051"
     inkscape:window-x="-9"
     inkscape:window-y="-9"
     inkscape:window-maximized="1"
     inkscape:current-layer="layer1">
    <inkscape:grid
       id="grid1"
       units="mm"
       originx="0"
       originy="0"
       spacingx="1.0000006"
       spacingy="1"
       empcolor="#0099e5"
       empopacity="1"
       color="#0099e5"
       opacity="0"
       empspacing="5"
       dotted="false"
       gridanglex="30"
       gridanglez="30"
       visible="false" />
  </sodipodi:namedview>
  <defs
     id="defs1">
    <inkscape:path-effect
       effect="offset"
       id="path-effect31"
       is_visible="true"
       lpeversion="1.2"
       linejoin_type="miter"
       unit="mm"
       offset="-0.4"
       miter_limit="4"
       attempt_force_join="false"
       update_on_knot_move="true" />
    <inkscape:path-effect
       effect="offset"
       id="path-effect29"
       is_visible="true"
       lpeversion="1.2"
       linejoin_type="miter"
       unit="mm"
       offset="-0.2"
       miter_limit="4"
       attempt_force_join="false"
       update_on_knot_move="true" />
    <inkscape:path-effect
       effect="offset"
       id="path-effect28"
       is_visible="true"
       lpeversion="1.2"
       linejoin_type="miter"
       unit="mm"
       offset="-0.4"
       miter_limit="4"
       attempt_force_join="false"
       update_on_knot_move="true" />
    <inkscape:path-effect
       effect="offset"
       id="path-effect27"
       is_visible="true"
       lpeversion="1.2"
       linejoin_type="miter"
       unit="mm"
       offset="-0.4"
       miter_limit="4"
       attempt_force_join="false"
       update_on_knot_move="true" />
    <inkscape:path-effect
       effect="offset"
       id="path-effect26"
       is_visible="true"
       lpeversion="1.2"
       linejoin_type="miter"
       unit="mm"
       offset="-0.4"
       miter_limit="4"
       attempt_force_join="false"
       update_on_knot_move="true" />
    <inkscape:path-effect
       effect="offset"
       id="path-effect25"
       is_visible="true"
       lpeversion="1.2"
       linejoin_type="miter"
       unit="mm"
       offset="-0.4"
       miter_limit="4"
       attempt_force_join="false"
       update_on_knot_move="true" />
  </defs>
  <g
     inkscape:label="Layer 1"
     inkscape:groupmode="layer"
     id="layer1">
    <g
       id="g31">
      <path
         d="m 60,95.451172 c 5.27232,-1.63e-4 9.550671,4.276591 9.550781,9.548828 v 5 4.94922 1.27148 V 120 122.28711 125 127.90234 130 v 4.59961 h -4.15039 V 130 129.43164 125 124.30469 120 119.13672 114.54883 H 60 C 54.727653,114.54871 50.451009,110.27233 50.451172,105 50.451282,99.727876 54.72787,95.451283 60,95.451172 Z m 0,4.148437 c -2.984112,1.84e-4 -5.400207,2.416271 -5.400391,5.400391 -1.24e-4,2.98433 2.41609,5.40021 5.400391,5.40039 h 5.400391 V 105 C 65.400207,102.01573 62.984337,99.599482 60,99.599609 Z"
         style="fill:#deaa87;stroke:none;stroke-width:0.1"
         id="path23"
         inkscape:path-effect="#path-effect25"
         inkscape:original-d="m 59.999955,95.050012 c -5.495042,1.16e-4 -9.949665,4.454738 -9.94978,9.949778 -1.7e-4,5.49525 4.454536,9.95018 9.94978,9.9503 h 5.000212 v 4.18682 0.863 4.30465 0.69556 4.43177 0.56793 5.00021 h 4.950085 v -5.00021 -2.09652 -2.90318 -2.71353 -2.28668 -3.77858 -1.27124 V 110 104.99979 c -1.15e-4,-5.495241 -4.455053,-9.949948 -9.950297,-9.949778 z m 0,4.950088 c 2.761376,-1.18e-4 5.000042,2.23832 5.000212,4.99969 V 110 h -5.000212 c -2.761375,-1.7e-4 -4.99981,-2.23883 -4.999695,-5.00021 1.7e-4,-2.76117 2.238521,-4.99952 4.999695,-4.99969 z"
         transform="rotate(57.810308,108.23869,72.457004)" />
      <path
         d="M 60,90.400391 C 68.061158,90.400332 74.59939,96.938839 74.599609,105 v 5 4.94922 3.1875 V 120 124.91992 125 v 5 4.59961 H 70.351562 V 130 127.90234 125 122.28711 120 116.2207 114.94922 110 105 C 70.351443,99.281797 65.718131,94.650214 60,94.650391 54.282075,94.650511 49.65051,99.282081 49.650391,105 49.650214,110.71814 54.281883,115.34948 60,115.34961 h 4.599609 v 3.78711 0.46289 H 60 C 51.938629,119.59967 45.400332,113.06137 45.400391,105 45.40061,96.938828 51.938837,90.400332 60,90.400391 Z"
         style="fill:#ff9955;stroke:none;stroke-width:0.1"
         id="path22"
         inkscape:path-effect="#path-effect26"
         inkscape:original-d="m 59.999955,90.000191 c -8.284126,-6e-5 -14.999893,6.715475 -15.000118,14.999599 -6e-5,8.28433 6.71579,15.00018 15.000118,15.00012 h 5.000212 v -0.863 -4.18682 h -5.000212 c -5.495244,-1.2e-4 -9.94995,-4.45505 -9.94978,-9.9503 1.15e-4,-5.49504 4.454738,-9.949662 9.94978,-9.949778 5.495244,-1.7e-4 9.950182,4.454537 9.950297,9.949778 V 110 v 4.95009 1.27124 3.77858 2.28668 2.71353 2.90318 2.09652 5.00021 h 5.049821 v -5.00021 -4.9997 -0.0796 -4.92063 -1.86242 -3.1874 V 110 104.99979 C 74.999848,96.715666 68.284082,90.000131 59.999955,90.000191 Z"
         transform="rotate(57.810308,108.23869,72.457004)" />
      <path
         id="path21"
         style="fill:#ff6600;stroke:none;stroke-width:0.1"
         d="M 43.238571 94.837636 C 41.437735 97.801036 40.400449 101.27951 40.400413 104.99975 C 40.40024 115.82248 49.177396 124.59947 60.00013 124.59958 L 64.599277 124.5997 L 64.599295 124.30478 L 64.599693 120.4007 L 60.000108 120.40031 C 51.492885 120.40037 44.599351 113.5074 44.599412 105.00017 C 44.599643 96.493144 51.492949 89.599688 59.999986 89.599749 C 68.507017 89.599688 75.400451 96.492868 75.400682 104.99989 L 75.400319 110.00006 L 75.400339 114.94918 L 75.400383 118.13666 L 75.400304 120.00024 L 75.400418 124.9201 L 75.400216 124.99997 L 75.400565 129.99998 L 75.400176 134.59956 L 79.59945 134.59954 L 79.59984 129.99995 L 79.599491 124.99995 L 79.59988 120.40036 L 79.599586 119.75963 L 79.599613 114.94915 L 79.599593 110.00003 L 79.599682 105.0003 C 79.599575 94.177574 70.822685 85.400301 59.999964 85.400474 C 52.897682 85.400544 46.676531 89.180234 43.238571 94.837636 z "
         transform="rotate(57.810308,108.23869,72.457004)" />
      <path
         d="M 60,80.400391 C 73.584104,80.400386 84.599614,91.415898 84.599609,105 v 5 4.94922 5.05078 5 5 4.59961 H 80.400391 V 130 125 120 119.89258 114.94922 110 105 C 80.400278,93.731406 71.268608,84.59943 60,84.599609 48.731596,84.599721 39.599722,93.7316 39.599609,105 39.59943,116.26862 48.731399,125.40028 60,125.40039 h 4.599609 v 4.03125 0.16797 H 60 C 46.415895,129.59961 35.400386,118.58411 35.400391,105 35.400386,91.415898 46.415895,80.400386 60,80.400391 Z"
         style="fill:#ff0000;fill-opacity:1;stroke:none;stroke-width:0.1"
         id="path20"
         inkscape:path-effect="#path-effect28"
         inkscape:original-d="m 59.999955,79.999788 c -13.807079,-5e-6 -25.000029,11.192945 -25.000024,25.000022 -5e-6,13.80708 11.192945,25.00003 25.000024,25.00003 h 5.000212 v -0.56793 -4.43177 H 59.999955 C 48.954251,125.00003 39.999966,116.04552 40.000142,104.99981 40.000252,93.95431 48.954453,85.000109 59.999955,85 c 11.045704,-1.76e-4 20.00022,8.954109 20.00033,19.99981 v 5.00021 4.95009 4.94337 0.10645 5.00021 4.9997 5.00021 h 4.999695 v -5.00021 -4.9997 -5.00021 -5.04982 -4.95009 -5.00021 c 5e-6,-13.807077 -11.192946,-25.000027 -25.000025,-25.000022 z"
         transform="rotate(57.810308,108.23869,72.457004)" />
      <path
         d="m 60,100.19922 c 2.649892,-1.1e-4 4.800618,2.15087 4.800781,4.80078 v 4.80078 H 60 C 57.350082,109.80062 55.199108,107.64989 55.199219,105 55.199382,102.3503 57.350306,100.19938 60,100.19922 Z"
         style="fill:#c8beb7;stroke:none;stroke-width:0.1"
         id="path24"
         inkscape:path-effect="#path-effect29"
         inkscape:original-d="m 59.999955,100.0001 c -2.761179,1.7e-4 -4.999525,2.23851 -4.999695,4.99969 -1.15e-4,2.76138 2.238314,5.00004 4.999695,5.00021 h 5.000212 v -5.00021 c -1.7e-4,-2.76138 -2.238831,-4.999808 -5.000212,-4.99969 z"
         transform="rotate(57.810308,108.23869,72.457004)" />
    </g>
  </g>
</svg>
