<?xml version="1.0" encoding="UTF-8" standalone="no"?>
<!-- Created with Inkscape (http://www.inkscape.org/) -->

<svg
   width="1800"
   height="1800"
   viewBox="0 0 476.24999 476.25"
   version="1.1"
   id="svg1"
   inkscape:version="1.3.2 (091e20e, 2023-11-25, custom)"
   sodipodi:docname="Logo D'esign 2.svg"
   xmlns:inkscape="http://www.inkscape.org/namespaces/inkscape"
   xmlns:sodipodi="http://sodipodi.sourceforge.net/DTD/sodipodi-0.dtd"
   xmlns="http://www.w3.org/2000/svg"
   xmlns:svg="http://www.w3.org/2000/svg">
  <sodipodi:namedview
     id="namedview1"
     pagecolor="#ffffff"
     bordercolor="#999999"
     borderopacity="1"
     inkscape:showpageshadow="2"
     inkscape:pageopacity="0"
     inkscape:pagecheckerboard="0"
     inkscape:deskcolor="#d1d1d1"
     inkscape:document-units="mm"
     inkscape:zoom="0.33587572"
     inkscape:cx="2222.5483"
     inkscape:cy="641.60636"
     inkscape:window-width="1920"
     inkscape:window-height="1051"
     inkscape:window-x="-9"
     inkscape:window-y="-9"
     inkscape:window-maximized="1"
     inkscape:current-layer="layer1">
    <inkscape:page
       x="0"
       y="0"
       width="476.25"
       height="476.25"
       id="page154"
       margin="0"
       bleed="0" />
    <inkscape:page
       x="486.25"
       y="0"
       width="476.25"
       height="476.25"
       id="page155"
       margin="0"
       bleed="0" />
  </sodipodi:namedview>
  <defs
     id="defs1" />
  <g
     inkscape:label="Layer 1"
     inkscape:groupmode="layer"
     id="layer1">
    <g
       id="g154"
       style="fill:#000000;fill-opacity:1"
       transform="translate(4.099521,-3.0546645)">
      <path
         d="m 247.22987,96.11403 v 25.89558 0.75499 25.78499 26.54101 26.54102 26.54102 H 220.68885 V 201.63162 175.0906 148.54959 123.17078 122.00961 96.517623 c -8.97745,0.790372 -17.86253,2.410827 -26.54101,4.840527 v 20.65146 6.92464 19.61534 26.54101 26.54102 26.54102 26.54101 26.54102 26.53998 26.54101 19.61638 6.92412 20.51865 c 8.67829,2.42965 17.56376,4.05017 26.54101,4.84053 v -25.35918 -1.16065 -25.37985 -26.54101 -26.53998 -26.54102 h 26.54102 v 26.54102 26.53998 26.54101 25.37985 1.16065 25.36951 c 8.97661,-0.78342 17.86203,-2.39685 26.54102,-4.81934 v -20.55017 -6.92412 -19.61638 -26.54101 -26.53998 -26.54102 -26.54101 -26.54102 -26.54102 -26.54101 -19.68097 -6.85901 -21.00492 C 265.094,98.558032 256.20893,96.920799 247.22987,96.11403 Z"
         style="fill:#000000;fill-opacity:1;stroke:#000000;stroke-width:0.264583"
         id="path153" />
      <path
         d="m 300.31087,111.44333 v 10.56628 20.15329 6.38669 26.54101 26.54102 26.54102 26.54101 26.54102 26.53998 26.54101 5.89422 20.64628 10.47843 c 5.93298,-3.09633 11.64685,-6.5978 17.09921,-10.47843 3.2489,-2.36542 6.39921,-4.86449 9.4418,-7.48998 v -19.05052 -18.12292 -8.41809 -26.53998 -26.54102 h 25.37985 1.16117 v 26.54102 26.53998 17.18293 c 3.90166,-5.47809 7.41996,-11.21949 10.52959,-17.18293 4.22887,-8.49637 7.61876,-17.38528 10.12135,-26.53998 2.42969,-8.67844 4.05016,-17.5636 4.84053,-26.54102 0.55358,-4.42727 0.9038,-8.8778 1.04955,-13.33717 -0.0157,-4.40872 -0.23127,-8.81464 -0.64596,-13.20384 -0.80676,-8.97896 -2.44403,-17.86424 -4.89066,-26.54102 -2.60443,-9.16647 -6.10081,-18.05629 -10.43864,-26.54102 -3.10657,-6.08816 -6.63735,-11.95093 -10.56576,-17.54414 -2.16607,-3.08626 -4.45114,-6.08762 -6.84971,-8.99687 -5.92079,-7.17636 -12.51495,-13.77052 -19.69131,-19.69131 -2.90873,-2.39816 -5.90963,-4.68292 -8.99531,-6.84867 -5.59367,-3.92863 -11.45703,-7.45963 -17.5457,-10.56628 z m 26.54101,55.00129 c 2.25752,2.78461 4.38868,5.66968 6.38669,8.64598 5.51813,8.25951 9.98459,17.17575 13.29532,26.54102 3.03975,8.5852 5.08764,17.4904 6.1035,26.54102 H 326.85188 V 201.63162 175.0906 Z"
         style="fill:#000000;fill-opacity:1;stroke:#000000;stroke-width:0.264583"
         id="path152" />
      <path
         d="m 167.60682,111.48002 c -5.96329,3.10956 -11.70497,6.62802 -17.18293,10.52959 -3.22018,2.36127 -6.34237,4.85399 -9.35808,7.47138 -6.92432,5.75462 -13.30181,12.13851 -19.04949,19.0686 -2.62571,3.04281 -5.12487,6.19318 -7.49049,9.44232 -3.88068,5.4523 -7.38202,11.16579 -10.47843,17.09869 -4.211761,8.49824 -7.585262,17.38808 -10.071741,26.54102 -2.422435,8.67878 -4.035937,17.56462 -4.819344,26.54102 -0.546061,4.38305 -0.892858,8.78933 -1.039213,13.20384 0.145736,4.4592 0.49599,8.91006 1.049548,13.33717 0.790335,8.97703 2.410944,17.86296 4.840532,26.54102 2.50246,9.15426 5.892678,18.04402 10.121348,26.53998 3.07544,5.88533 6.54967,11.55478 10.3973,16.96692 v -16.96692 -26.53998 -26.54102 h 1.16117 25.37881 v 26.54102 26.53998 8.41602 18.12499 18.93683 c 3.08403,2.66721 6.27861,5.20404 9.57512,7.60367 5.4121,3.8476 11.08064,7.32131 16.96589,10.39679 v -10.39679 -20.6468 -5.8937 -26.54101 -26.53998 -26.54102 -26.54101 -26.54102 -26.54102 -26.54101 -5.89266 -20.64732 z m -26.54101,55.19559 v 8.41499 26.54102 26.54102 H 115.687 c 0.90567,-9.03696 2.8395,-17.94234 5.76347,-26.54102 3.44522,-9.38618 8.05607,-18.30369 13.72319,-26.54102 1.84238,-2.88808 3.8084,-5.6959 5.89215,-8.41499 z"
         style="fill:#000000;fill-opacity:1;stroke:#000000;stroke-width:0.264583"
         id="path151" />
    </g>
    <ellipse
       style="fill:none;fill-opacity:1;stroke:#000000;stroke-width:12;stroke-dasharray:none;stroke-opacity:1"
       id="path154"
       cx="238.125"
       cy="238.125"
       rx="172.67545"
       ry="170.72588" />
    <g
       id="g195"
       transform="translate(0.13240021,-2.7801899)"
       style="stroke:none;stroke-opacity:1;fill:#000000;fill-opacity:1">
      <path
         d="m 737.64541,103.6376 v 18.37201 13.66066 12.87932 26.54101 26.54102 26.54102 26.54101 26.54102 26.53998 26.54101 11.80445 14.73605 17.29662 l 26.54102,-16.17782 1.83555,-1.1188 24.70443,-15.05799 18.83761,-11.48251 7.70341,-4.69532 26.27643,-16.01659 v -5.8291 -26.53998 -26.54102 -26.54101 -26.54102 -26.54102 -6.90397 l -26.27643,-16.01659 -5.93969,-3.62045 -20.60133,-12.55737 -22.9402,-13.98261 -3.59978,-2.19418 z m 26.54102,48.2105 26.53998,16.1773 11.59103,7.0652 14.94999,9.11263 v 17.42839 26.54102 H 790.72641 764.18643 V 201.63162 175.0906 Z m 0,102.86555 h 26.53998 26.54102 v 26.54102 16.35249 l -16.71319,10.18749 -9.82783,5.99033 -26.53998,16.17731 v -22.16764 -26.53998 z"
         style="fill:#000000;stroke:none;stroke-opacity:1;fill-opacity:1"
         id="path194" />
      <path
         d="m 711.1044,103.47637 -26.54102,16.17783 -3.86436,2.35541 -22.67665,13.82241 -20.86488,12.71757 -5.67614,3.45974 -26.53998,16.1773 v 6.90397 26.54102 26.54102 26.54101 h 26.27643 0.26355 26.54102 26.54101 v 26.54102 26.53998 22.32887 l -26.54101,-16.17783 -10.09138,-6.15104 -16.44964,-10.02678 -0.26355,-0.16071 v -16.35249 h -26.27643 v 26.53998 5.8291 l 26.53998,16.17731 7.43986,4.5346 19.10116,11.64271 24.44088,14.89779 2.10013,1.28003 26.54102,16.17782 v -17.45785 -14.57482 -11.96568 -26.54101 -26.53998 -26.54102 -26.54101 h -26.54102 -26.54101 -26.54102 -0.26355 v -26.54102 -17.42839 l 0.26355,-0.16072 14.68644,-8.95191 11.85458,-7.22591 26.54101,-16.17782 v 23.40373 26.54102 H 711.1044 V 175.0906 148.54959 135.50904 122.00961 Z"
         style="fill:#000000;stroke:none;stroke-opacity:1;fill-opacity:1"
         id="path193" />
    </g>
    <path
       sodipodi:type="star"
       style="fill:none;fill-opacity:1;stroke:#000000;stroke-width:11.32445867;stroke-dasharray:none;stroke-opacity:1"
       id="path195"
       inkscape:flatsided="true"
       sodipodi:sides="6"
       sodipodi:cx="564.25879"
       sodipodi:cy="71.855263"
       sodipodi:r1="160.04826"
       sodipodi:r2="138.60585"
       sodipodi:arg1="0.52359878"
       sodipodi:arg2="1.0471976"
       inkscape:rounded="0"
       inkscape:randomized="0"
       d="m 702.86465,151.8794 -138.60586,80.02413 -138.60586,-80.02414 0,-160.0482596 138.60586,-80.0241314 138.60586,80.0241326 z"
       inkscape:transform-center-x="2.828719e-05"
       transform="matrix(1.0596533,0,0,1.0596533,126.45631,161.98333)"
       inkscape:transform-center-y="-6.4542168e-06" />
  </g>
</svg>
